<?xml version="1.0" encoding="UTF-8" standalone="no" ?>
<!DOCTYPE svg PUBLIC "-//W3C//DTD SVG 1.1//EN" "http://www.w3.org/Graphics/SVG/1.1/DTD/svg11.dtd">
<svg xmlns="http://www.w3.org/2000/svg" xmlns:xlink="http://www.w3.org/1999/xlink" version="1.1" width="640" height="480" viewBox="0 0 640 480" xml:space="preserve">
<desc>Created with Fabric.js 3.6.6</desc>
<defs>
</defs>
<g transform="matrix(17.29 0 0 17.29 329.78 293.57)"  >
<path style="stroke: none; stroke-width: 1; stroke-dasharray: none; stroke-linecap: butt; stroke-dashoffset: 0; stroke-linejoin: miter; stroke-miterlimit: 4; fill: rgb(214,228,229); fill-rule: nonzero; opacity: 1;"  transform=" translate(-12, -11.25)" d="M 19 1 L 14 6 V 17 L 19 12.5 V 1 M 21 5 V 18.5 C 19.9 18.15 18.7 18 17.5 18 C 15.8 18 13.35 18.65 12 19.5 V 6 C 10.55 4.9 8.45 4.5 6.5 4.5 C 4.55 4.5 2.45 4.9 1 6 V 20.65 C 1 20.9 1.25 21.15 1.5 21.15 C 1.6 21.15 1.65 21.1 1.75 21.1 C 3.1 20.45 5.05 20 6.5 20 C 8.45 20 10.55 20.4 12 21.5 C 13.35 20.65 15.8 20 17.5 20 C 19.15 20 20.85 20.3 22.25 21.05 C 22.35 21.1 22.4 21.1 22.5 21.1 C 22.75 21.1 23 20.85 23 20.6 V 6 C 22.4 5.55 21.75 5.25 21 5 M 10 18.41 C 8.75 18.09 7.5 18 6.5 18 C 5.44 18 4.18 18.19 3 18.5 V 7.13 C 3.91 6.73 5.14 6.5 6.5 6.5 C 7.86 6.5 9.09 6.73 10 7.13 V 18.41 Z" stroke-linecap="round" />
</g>
</svg>